<svg xmlns="http://www.w3.org/2000/svg" xmlns:xlink="http://www.w3.org/1999/xlink" id="Calque_1" x="0px" y="0px" viewBox="0 0 417.6 460.7" style="enable-background:new 0 0 417.6 460.7;" xml:space="preserve">
<style type="text/css">
	.st0{fill:#B4A063;}
	.st1{fill:#FFFFFF;}
</style>
<g>
	<path class="st0" d="M64.3,278.6c3.8-5,7.2-9.7,10.3-13.6C1.4,178.6-4.7,107.4,79.6,21c75.6,85.8,69.8,159.8,4.1,243.8   c37.7,43.3,70.4,111.9,36.1,177.6c27.4-61.3,1.2-124.9-40.7-172.6c-4.9,5.8-10.1,10.5-14.6,16.7L64.3,278.6z M79.3,39   c-72.4,77.7-65.4,143.3-0.4,220.6C113.8,214.4,159.7,138.4,79.3,39L79.3,39z"></path>
	<path class="st0" d="M75.9,88.1c0,4.1-3.4,7.4-7.4,7.4c-4.1,0-7.4-3.4-7.4-7.4c0-4.1,3.4-7.4,7.4-7.4   C72.7,80.8,75.9,84.1,75.9,88.1z"></path>
</g>
<g>
	<path class="st1" d="M152.4,139.2v45c0,17.7,7.8,22.5,15.4,22.5c9,0,15.3-5.2,15.3-22.5v-45h8v44.5c0,24.3-10.7,31.3-23.5,31.3   c-12.5,0-23.3-7.5-23.3-30.6v-45.2L152.4,139.2L152.4,139.2z"></path>
	<path class="st1" d="M213.1,191.6l-6.4,22.4h-7.9l21.3-74.8h9.8l22.2,74.8h-8.5l-6.6-22.4H213.1z M234.9,183.1   c-5.7-19.7-8.8-30.1-10.1-35.8h-0.1c-1.5,6.4-5,19-9.6,35.8H234.9z"></path>
	<path class="st1" d="M269.4,139.2V214h-7.9v-74.8H269.4z"></path>
</g>
<g>
	<path class="st1" d="M145.9,236.7c0.4,2.4,2,3.4,3.9,3.4c1.9,0,3.5-1.1,3.5-3.2c0-1.9-0.8-2.7-3.8-3.7c-3-1-4.2-1.9-4.2-4.1   c0-2.2,1.6-3.8,4.4-3.8c3.1,0,4.4,2,4.5,3.9H153c-0.3-1.8-1.4-2.9-3.4-2.9c-2.1,0-3.1,1-3.1,2.7s0.8,2.4,3.5,3.2   c3.7,1.1,4.6,2.5,4.6,4.6c0,2.6-1.8,4.3-4.8,4.3c-3.1,0-4.8-1.7-5-4.4H145.9z"></path>
	<path class="st1" d="M161.4,239.3v6.1h-1.1v-12.2c0-1.5,0-2.6,0-3.3h1.1c0,0.4,0,1.3,0,2c0.6-1.4,1.8-2.2,3.6-2.2   c2.5,0,4.1,2,4.1,5.5c0,3.8-1.9,5.9-4.5,5.9C162.9,241,161.9,240.3,161.4,239.3z M168,235.2c0-2.9-1.2-4.6-3.2-4.6   c-2.6,0-3.4,1.9-3.4,4.8c0,2.6,0.4,4.6,3.3,4.6C166.7,240,168,238.2,168,235.2z"></path>
	<path class="st1" d="M175.4,235.5c0,2.8,1.2,4.6,3.4,4.6c2.1,0,2.7-1.5,3-2.2h1.1c-0.3,1.1-1.2,3.2-4.1,3.2c-3.4,0-4.4-2.9-4.4-5.8   c0-2.7,1.3-5.7,4.5-5.7c3.3,0,4.3,2.8,4.3,5.1v0.8H175.4z M181.9,234.5c-0.1-2.3-1-3.9-3.2-3.9c-2.6,0-3.1,2.4-3.3,3.9H181.9z    M181.6,224.2l-2.7,3.4h-1.3l2.6-3.4H181.6z"></path>
	<path class="st1" d="M196.9,237.6c-0.5,2.1-1.9,3.5-4.2,3.5c-2.9,0-4.5-2-4.5-5.8c0-3,1.4-5.7,4.6-5.7c2.5,0,3.9,1.7,4.1,3.7h-1.1   c-0.3-1.4-1.1-2.7-3-2.7c-2.3,0-3.4,2-3.4,4.7c0,3,1.2,4.8,3.4,4.8c1.7,0,2.6-1,3-2.5L196.9,237.6L196.9,237.6z"></path>
	<path class="st1" d="M202.8,224.7h1.1v2.1h-1.1V224.7z M202.8,229.8h1.1v11.1h-1.1V229.8z"></path>
	<path class="st1" d="M217.8,238.7c0,0.8,0.1,1.7,0.2,2.2h-1.1c-0.1-0.4-0.1-1-0.2-2c-0.4,1.3-1.6,2.2-3.5,2.2   c-2.7,0-3.4-1.9-3.4-3.4c0-1.4,0.9-3.4,4.9-3.4c0.9,0,1.4,0,2,0V233c0-1.1-0.3-2.5-2.6-2.5c-1.8,0-2.6,0.8-2.8,2.3h-1.1   c0.2-1.9,1.3-3.3,3.9-3.3c2.1,0,3.6,0.9,3.6,3.3L217.8,238.7L217.8,238.7z M216.7,235.2c-0.5,0-1.3,0-2,0c-3.1,0-3.7,1.3-3.7,2.5   c0,1.3,0.8,2.4,2.4,2.4c2.5,0,3.4-1.7,3.4-4.6L216.7,235.2L216.7,235.2z"></path>
	<path class="st1" d="M224.6,240.9v-16.1h1.1v16.1H224.6z"></path>
	<path class="st1" d="M232.4,224.7h1.1v2.1h-1.1V224.7z M232.4,229.8h1.1v11.1h-1.1V229.8z"></path>
	<path class="st1" d="M238.8,229.8h1.9v-3.4h1.1v3.4h2.4v1h-2.4v7.8c0,1,0.3,1.5,1.2,1.5c0.3,0,0.8,0,1-0.1v0.9   c-0.3,0.1-0.9,0.2-1.2,0.2c-1.3,0-2.1-0.4-2.1-2.1v-8.1h-1.9L238.8,229.8L238.8,229.8z"></path>
	<path class="st1" d="M249.9,235.5c0,2.8,1.2,4.6,3.4,4.6c2.1,0,2.7-1.5,3-2.2h1.1c-0.3,1.1-1.2,3.2-4.1,3.2c-3.4,0-4.4-2.9-4.4-5.8   c0-2.7,1.3-5.7,4.5-5.7c3.3,0,4.3,2.8,4.3,5.1v0.8H249.9z M256.4,234.5c-0.1-2.3-1-3.9-3.2-3.9c-2.6,0-3.1,2.4-3.3,3.9H256.4z    M256.1,224.2l-2.7,3.4h-1.3l2.6-3.4H256.1z"></path>
	<path class="st1" d="M273.4,239.3v6.1h-1.1v-12.2c0-1.5,0-2.6,0-3.3h1.1c0,0.4,0,1.3,0,2c0.6-1.4,1.8-2.2,3.6-2.2   c2.5,0,4.1,2,4.1,5.5c0,3.8-2,5.9-4.5,5.9C274.9,241,273.9,240.3,273.4,239.3z M280,235.2c0-2.9-1.2-4.6-3.2-4.6   c-2.6,0-3.4,1.9-3.4,4.8c0,2.6,0.4,4.6,3.3,4.6C278.7,240,280,238.2,280,235.2z"></path>
	<path class="st1" d="M295.5,235.1c0,3.2-1.3,5.9-4.7,5.9c-3.2,0-4.5-2.8-4.5-5.9c0-3,1.6-5.6,4.7-5.6   C293.8,229.6,295.5,231.8,295.5,235.1z M287.4,235.2c0,2.7,1.2,4.9,3.5,4.9c2.5,0,3.4-2.1,3.4-4.9c0-2.5-1.2-4.6-3.5-4.6   C288.6,230.6,287.4,232.5,287.4,235.2z"></path>
	<path class="st1" d="M301.5,224.7h1.1v2.1h-1.1V224.7z M301.5,229.8h1.1v11.1h-1.1V229.8z"></path>
	<path class="st1" d="M309.4,237.8c0.3,1.5,1.4,2.3,2.9,2.3c1.9,0,2.5-1.1,2.5-2.2c0-1.2-0.8-1.9-2.8-2.4c-2.5-0.7-3.3-1.6-3.3-3   c0-1.5,1.1-2.9,3.4-2.9c2.5,0,3.4,1.5,3.6,3.1h-1.1c-0.2-1.1-0.8-2.1-2.5-2.1c-1.6,0-2.2,0.8-2.2,1.9c0,1,0.4,1.5,2.5,2.1   c2.7,0.7,3.6,1.6,3.6,3.4c0,1.9-1.5,3.2-3.7,3.2c-2,0-3.7-1-3.9-3.3L309.4,237.8L309.4,237.8z"></path>
	<path class="st1" d="M322,237.8c0.3,1.5,1.4,2.3,2.9,2.3c1.9,0,2.5-1.1,2.5-2.2c0-1.2-0.8-1.9-2.8-2.4c-2.5-0.7-3.3-1.6-3.3-3   c0-1.5,1.1-2.9,3.4-2.9c2.5,0,3.4,1.5,3.6,3.1h-1.1c-0.2-1.1-0.8-2.1-2.5-2.1c-1.6,0-2.2,0.8-2.2,1.9c0,1,0.4,1.5,2.5,2.1   c2.7,0.7,3.6,1.6,3.6,3.4c0,1.9-1.5,3.2-3.7,3.2c-2,0-3.7-1-3.9-3.3L322,237.8L322,237.8z"></path>
	<path class="st1" d="M342.9,235.1c0,3.2-1.3,5.9-4.7,5.9c-3.2,0-4.5-2.8-4.5-5.9c0-3,1.6-5.6,4.7-5.6   C341.1,229.6,342.9,231.8,342.9,235.1z M334.8,235.2c0,2.7,1.2,4.9,3.5,4.9c2.5,0,3.4-2.1,3.4-4.9c0-2.5-1.2-4.6-3.5-4.6   C335.9,230.6,334.8,232.5,334.8,235.2z"></path>
	<path class="st1" d="M348.8,233.3c0-2.3,0-3,0-3.5h1.1c0,0.2,0.1,1.5,0,1.9c0.5-1.1,1.4-2.2,3.4-2.2c1.9,0,3.5,0.9,3.5,4.2v7.1   h-1.1v-7c0-1.9-0.7-3.3-2.5-3.3c-2.4,0-3.3,1.9-3.3,4.5v5.8h-1.1L348.8,233.3L348.8,233.3z"></path>
</g>
<g>
	<path class="st0" d="M292.2,157.9c-0.1-0.2-0.1-0.5-0.1-0.6c-0.1-0.2-0.1-0.4-0.1-0.6c-0.1-0.2-0.1-0.5,0-0.7   c0.2-0.8,0.8-1.6,1.4-2.1s1.3-1.1,2-1.5c0.9-0.5,1.9-1.1,2.7-1.6c0.9-0.5,1.8-1,2.6-1.6c1.2-0.9,2.3-1.7,3.3-2.6s2.1-1.7,3.2-2.6   c0.8-0.5,1.5-1.1,2.2-1.7s1.5-1.2,2.1-1.9c0.4-0.4,0.9-0.9,1.2-1.3c0.4-0.5,0.8-0.9,1.3-1.2c1-0.9,2-1.9,2.9-2.9   c0.9-1,1.9-2.1,2.7-3.2c0.6-0.6,1.1-1.3,1.5-2.1c0.3-0.3,0.4-0.8,0.2-1.2c-0.1-0.3-0.5-0.4-1.1-0.4c-1,0.1-1.9,0.2-2.9,0.3   c-1,0.1-1.9,0.2-2.9,0.5c-3.7,1.1-7.4,2.4-11,3.9c-1,0.4-1.9,0.8-2.9,1.3c-0.9,0.5-1.9,1-2.7,1.5c-1.9,1-3.6,2-5.3,3.2   c-1.7,1.2-3.4,2.4-5.1,3.6c-0.4,0.3-0.8,0.6-1.2,0.9c-0.4,0.3-0.9,0.5-1.3,0.8c-1.5,0.7-3,1.2-4.6,1.6c-0.5,0.1-0.9,0.1-1.3-0.1   s-0.7-0.6-0.9-1.1c-0.1-0.1-0.2-0.3-0.4-0.5c-1-1-1-2.1,0.1-3.1c1.8-1.8,3.7-3.4,5.8-4.8c2.1-1.5,4.3-2.9,6.4-4.1l3.1-1.9l3.1-1.9   c1-0.5,1.9-0.9,2.9-1.4c0.9-0.4,1.9-0.8,3-1.2c1.5-0.5,2.9-1.1,4.4-1.6c1.5-0.5,3-1,4.5-1.4c1.4-0.4,2.8-0.8,4.3-0.9   c1.4-0.2,2.9-0.2,4.3-0.2c0.5,0.1,1,0.2,1.5,0.4c0.5,0.2,1,0.4,1.5,0.6c0.1,0.1,0.3,0.2,0.4,0.4c0.1,0.2,0.1,0.3,0.1,0.5   c0,0.6,0.2,1.2,0.6,1.6c0.3,0.5,0.8,0.8,1.2,1.1c0.3,0.2,0.6,0.5,0.9,0.6c0.3,0.2,0.6,0.4,0.9,0.6l-0.4,0.2   c-0.1,0.1-0.2,0.2-0.4,0.3c0.3,0.2,0.6,0.5,0.8,0.8c0.1,0.3-0.1,0.7-0.6,1.2h0.8c0.3,0,0.5,0,0.9,0.1c0.1,0.1,0.1,0.3,0.1,0.5   c0.1,0.1,0.1,0.4,0.1,0.6c-0.1,0.5-0.2,1.2-0.2,1.7c-0.1,0.5-0.1,1.2-0.4,1.7c-0.3,0.9-0.7,1.6-1.1,2.4c-0.5,0.8-0.8,1.6-1,2.4   c-0.1,0.5-0.4,0.9-0.9,1.2c-0.4,0.2-0.8,0.5-1.1,0.9c-0.4,0.5-0.9,1-1.3,1.5s-0.9,1-1.4,1.5c-0.1,0.1-0.2,0.2-0.4,0.4l-0.7,0.5   c0.9,0.3,1.8,0.6,2.6,0.9c0.9,0.3,1.7,0.6,2.5,0.9c0.8,0.4,1.5,0.9,2.3,1.5c0.7,0.5,1.5,1.2,2.3,1.7c-0.3,0.1-0.6,0.4-1,0.6   c0.5,0.6,0.9,1.2,1.4,1.7c0.5,0.5,0.9,1.1,1.3,1.6s0.7,0.9,1,1.4s0.4,1.1,0.3,1.6c0,0.1,0.1,0.3,0.1,0.5c0.5,0.4,0.9,0.9,0.9,1.6   c0,0.6-0.1,1.2-0.1,1.8c-0.1,0.4-0.2,0.8-0.4,1.1c-0.1,0.4,0,0.9,0.2,1.2c0.1,0.1,0,0.2-0.1,0.4c-0.1,0.1-0.3,0.4-0.4,0.6   c0.1,0.3,0.2,0.5,0.4,0.5c-0.3,0.9-0.6,1.6-0.9,2.4s-0.6,1.5-0.9,2.1l-1.1,2.2c-0.1,0.5-0.4,0.9-0.5,1.2s-0.3,0.8-0.5,1.2   c-0.2,0.3-0.5,0.6-0.7,0.9l-1.2,1.1c-0.4,0.4-0.8,0.8-1.1,1.2c-1,1.5-2.1,2.9-3.1,4.4s-2.2,2.9-3.5,4c-0.5,0.5-1.1,1-1.5,1.6   c-0.5,0.5-1,1.1-1.6,1.5c-1.5,1.2-3,2.4-4.4,3.8c-1.3,1.4-2.8,2.6-4.4,3.6c-0.5,0.4-1,0.8-1.4,1.2c-0.5,0.5-0.9,0.9-1.4,1.2   c-0.6,0.5-1.2,0.9-1.9,1.3s-1.3,0.9-1.9,1.3c-0.5,0.3-1,0.6-1.5,0.9s-1,0.7-1.5,1.1c-1,0.8-2,1.6-2.9,2.4c-1,0.9-2.1,1.5-3.3,2   c-0.8,0.3-1.5,0.7-2.3,1.2c-0.7,0.5-1.5,0.9-2.3,1.3c-0.8,0.4-1.6,0.7-2.5,0.9c-0.9,0.3-1.7,0.5-2.6,0.9c-0.1,0.1-0.4,0.1-0.5,0.1   c-0.2,0-0.5,0-0.6,0.1l-3.3,0.1c-1.1,0.1-2.2,0.1-3.3,0.3c-0.2,0-0.5-0.1-0.7-0.1l-0.8-0.3c-0.1,0.5-0.2,0.8-0.5,0.8   s-0.7-0.1-0.9-0.2c-0.1-0.1-0.2-0.1-0.4-0.1c-0.1,0-0.3,0-0.4-0.1c-1.1-0.1-2.2-0.5-3.1-1.2s-1.8-1.5-2.6-2.3   c-0.3-0.4-0.7-0.8-1.1-1c-0.7-0.4-1.2-1.1-1.5-1.9c-0.2-0.8-0.6-1.5-1-2.1c-0.3-0.4-0.6-0.9-1-1.2c-0.7-1.2-1.2-2.3-1.6-3.6   c-0.3-1.2-0.6-2.6-0.9-3.9c-0.1-0.2-0.1-0.5,0-0.7c0.1-0.2,0.1-0.5,0.1-0.7c0.1-0.9,0.1-1.9,0.2-2.8c0-0.9,0.1-1.9,0.2-2.8   c0-0.2,0-0.5,0.1-0.6l0.3-0.6c0.1-0.1,0.1-0.2,0.2-0.4c0.1-0.1,0.1-0.3,0.1-0.4c0-0.5,0.1-0.9,0.2-1.2c0.1-0.4,0.4-0.7,0.6-1   c0.2-0.3,0.5-0.6,0.8-0.9s0.5-0.6,0.6-1l0.4,0.1c-0.1,0.6-0.2,1.2-0.3,1.9s-0.1,1.2-0.3,1.9c-0.1,0.7-0.2,1.3-0.3,2   c-0.1,0.7-0.1,1.3-0.1,2c0,0.1,0.1,0.3,0.1,0.4c0.1,0.1,0.2,0.2,0.3,0.4c0.1,0.2,0.2,0.5,0.2,0.9c0.1,0.3,0.1,0.5,0,0.9   c0,0.5,0,1.1-0.1,1.6c-0.1,0.5-0.1,1.1-0.1,1.6c-0.1,1.2,0.2,2.3,0.9,3.3s1.7,1.5,2.8,1.7c0.9,0.1,1.9,0.1,2.8,0.1   c0.9,0,1.9-0.1,2.8-0.2c2.2-0.3,4.3-0.8,6.4-1.4c1-0.3,1.9-0.7,2.9-1.1l2.7-1.2c1.9-0.8,3.6-1.6,5.4-2.6c0.3-0.1,0.6-0.3,0.9-0.5   c0.3-0.2,0.5-0.4,0.9-0.6c0.7-0.5,1.5-1.1,2.3-1.6c0.8-0.5,1.5-1.1,2.3-1.6c1-0.7,2.1-1.5,3.2-2.2s2.2-1.4,3.2-2.2   c1.9-1.6,4-3.1,6-4.8c1.3-1.2,2.6-2.3,3.9-3.4s2.6-2.3,3.8-3.4c0.5-0.5,1.1-1,1.5-1.6c0.5-0.5,0.9-1.1,1.5-1.6c0.9-1,1.7-2,2.6-2.9   c0.9-0.9,1.7-1.9,2.5-2.9c0.6-0.9,1.1-1.7,1.5-2.6l1.3-2.7c0.3-0.5,0.5-1,0.7-1.6s0.3-1.2,0.4-1.7c0.1-0.5,0.1-1,0-1.2   c-0.1-0.1-0.5-0.1-1.2-0.1c-0.2,0-0.5,0-0.7-0.1c-0.2-0.1-0.5-0.1-0.7-0.1c-0.7,0-1.5,0-2.3,0.1c-0.8,0.1-1.5,0.1-2.3,0   c-1.2-0.1-2.6,0-3.7,0.5c-1.2,0.4-2.4,0.7-3.7,0.9c-0.1,0-0.3,0.1-0.4,0.1c-2.2,1.2-4.5,2.4-6.7,3.6c-0.1,0.1-0.2,0.2-0.4,0.3   c-0.1,0.1-0.2,0.2-0.4,0.3c-0.1,0.1-0.3,0.3-0.4,0.5c-0.1,0.1-0.3,0.3-0.5,0.3c-0.8,0.1-1.5,0.5-1.9,1.2c-0.4,0.6-0.9,1.2-1.4,1.7   c-0.7,0.8-1.4,1-2,0.8c-2.1-0.6-3.7-2.3-4.3-4.4c-0.1-0.1-0.1-0.2-0.2-0.4c-0.1-0.1-0.1-0.2-0.2-0.4c-0.1-0.1-0.1-0.2-0.1-0.4   c-0.1-0.1-0.1-0.2,0-0.4c0.1-0.4,0.1-0.8,0.1-1.2C293,158.5,292.6,158.3,292.2,157.9z M320,171.9c-0.7-0.2-1.2-0.3-1.4-0.1   c-0.3,0.2-0.5,0.5-0.6,0.9c-0.1,0.1-0.2,0.4-0.4,0.5c-0.1,0.1-0.4,0.4-0.6,0.5c-0.2,0.1-0.4,0.3-0.6,0.5c-0.6,0.7-1.2,1.3-1.7,1.9   c-0.5,0.7-1.2,1.3-1.9,1.9c-0.8,0.8-1.6,1.6-2.4,2.3s-1.6,1.5-2.5,2.3c-0.5,0.5-1.1,1-1.7,1.6c-0.6,0.5-1.2,1.1-1.7,1.6   c-0.1,0.1-0.3,0.2-0.5,0.3s-0.3,0.1-0.5,0.3c-0.2,0.6-0.7,1.1-1.3,1.2c-0.6,0.1-1.2,0.5-1.7,0.8c-0.2,0.1-0.5,0.2-0.8,0.3   s-0.5,0.1-0.6,0.3c-0.9,0.6-1.7,1.2-2.6,1.8s-1.7,1.2-2.6,1.9c-0.9,0.7-1.7,1.3-2.6,1.9s-1.9,1.1-2.9,1.6c-0.7,0.4-1.3,0.8-1.9,1.2   s-1.3,0.9-1.9,1.3c-0.2,0.1-0.5,0.2-0.7,0.3c-0.2,0.1-0.5,0.2-0.7,0.3c-1.2,0.5-2.4,1.2-3.6,1.7c-1.2,0.6-2.4,1.2-3.7,1.6   c-1.5,0.5-3.2,0.9-4.7,1.2l-4.7,0.9c-0.2,0.1-0.4,0.4-0.5,0.6l0.4,0.1l0.4,0.1c0.1,0,0.3,0,0.4-0.1c0.1,0,0.2-0.1,0.3-0.1   c0.1,0.3,0.2,0.6,0.2,0.9c0,0.2,0.1,0.5,0.3,0.7c0.3,0.1,0.6,0.3,0.9,0.4s0.7,0.1,1.1,0.1c0.3,0,0.7,0,1-0.1l1.1-0.1   c0.3,0,0.6,0,0.9,0s0.6,0,0.9,0l0.9,0.1c0.3,0.1,0.7,0.1,1.1,0.3l-0.8-0.6l5-1.4c0,0.1,0,0.2-0.1,0.3c0,0.1-0.1,0.2,0,0.3   c0.8,0.3,1.7-0.1,2-0.9c0.1-0.1,0.3-0.2,0.5-0.3l0.7-0.1c1.5,0,2-0.7,1.7-2.1c0.4-0.1,0.7-0.3,1-0.5c0.3-0.1,0.7,0,1.1,0.5   c0,0.1,0.1,0.1,0.3,0c0.1-0.1,0.3-0.1,0.5-0.1v-0.3c-0.3-0.2-0.6-0.4-0.9-0.5c0.1-0.2,0.3-0.4,0.5-0.5c0.6-0.1,1.2-0.4,1.7-0.5   l1.7-0.5c0.3-0.1,0.5-0.2,0.9-0.4l0.7-0.4l0.9-0.7c0.3-0.2,0.6-0.5,0.9-0.6c0.6-0.4,1.2-0.7,1.7-1l1.9-1c0.2-1,0.9-1.9,1.9-2.4   c0.5-0.2,0.9-0.5,1.4-0.8c0.5-0.3,0.9-0.5,1.4-0.9l1.1-0.9c0.1-0.1,0.2-0.2,0.3-0.4c0.1-0.1,0.2-0.2,0.3-0.4l1.2-1.2   c0.4-0.4,0.9-0.8,1.3-1.1c0.2-0.2,0.5-0.5,0.9-0.7c0.3-0.1,0.5-0.4,0.9-0.5l0.5-0.5l1-0.9c0.3-0.2,0.6-0.5,0.9-0.8   c0.2-0.1,0.4-0.3,0.5-0.5c0.1-0.1,0.4-0.3,0.5-0.5c0,0.1,0,0.1,0,0.1c0.1,0.1,0.1,0.1,0.1,0.2c0.5,0,0.9,0.1,1.4,0.1   c-0.1-0.2-0.2-0.4-0.2-0.6c-0.1-0.1-0.1-0.4-0.2-0.7l0.8-0.2c0.3-0.1,0.5-0.1,0.9-0.2c0.5-0.1,0.9-0.5,0.9-1.1   c-0.1-0.5,0.2-1,0.8-1.2c0.2-0.1,0.4-0.3,0.5-0.5c0.1-0.2,0.4-0.5,0.6-0.9c-0.5-0.1-0.9-0.1-1.3,0.1c-0.4,0.1-0.8,0.4-0.9,0.8   c-0.2,0.3-0.5,0.5-0.9,0.6c-0.4,0.1-0.8,0.2-1.2,0.4c-0.1-0.1-0.1-0.1-0.1-0.3c0.3-0.3,0.6-0.6,0.9-0.9s0.6-0.5,1-0.6   c0.5-0.2,1.1-0.5,1.5-0.9s0.9-0.8,1.3-1.2l0.1-0.1c0.7-0.3,1.3-0.8,1.9-1.4c0.5-0.6,0.9-1.3,1.1-2.1c-0.6-0.3-1-0.2-1.2,0.1   c-0.2,0.4-0.6,0.7-1,0.8c0.3-0.3,0.6-0.6,0.9-0.9C319.4,172.6,319.7,172.3,320,171.9L320,171.9z M270.1,211.4   c-0.3-0.3-0.7-0.5-1.1-0.6c-0.3-0.1-0.8,0.1-1.2,0.6H270.1z M271.5,204.6c-0.2,0.2-0.5,0.5-0.7,0.8c-0.1,0.1-0.3,0.3-0.5,0.4   c-0.1,0.1-0.3,0-0.5-0.1s-0.4-0.3-0.6-0.5c0.1-0.1,0.1-0.1,0.1-0.3c0.3-0.1,0.6-0.1,0.9-0.1C270.6,204.6,271,204.6,271.5,204.6   L271.5,204.6z M276.8,203.2c-0.1,0.3-0.2,0.6-0.4,0.9c-0.1,0.2-0.2,0.6-0.4,0.9c-0.1-0.2-0.4-0.5-0.6-0.7l-0.6-0.6   c0.3-0.1,0.5-0.2,0.9-0.4c0.2-0.1,0.5-0.3,0.9-0.4L276.8,203.2z M277.6,202.6l1.5-0.5c0.5-0.1,0.9-0.3,1.4-0.4   c-0.5,1-1.7,1.5-2.7,0.9C277.7,202.6,277.7,202.6,277.6,202.6L277.6,202.6z M284.7,199.8l-1.7,0.9c-0.6,0.3-1.2,0.7-1.8,1.1   c-0.1-0.1-0.1-0.3-0.1-0.5c0.6-0.3,1.2-0.6,1.8-0.9l1.8-0.9c0,0.1,0,0.1,0,0.1C284.6,199.8,284.7,199.8,284.7,199.8L284.7,199.8z    M285.4,199c1-0.6,2.1-1.2,3.1-1.8l3.1-1.8c-0.2,0.4-0.5,0.7-1,0.9c-0.5,0.4-1.1,0.8-1.7,1.2c-0.6,0.4-1.3,0.7-1.9,1   C286.4,198.8,285.9,198.9,285.4,199L285.4,199z M301.7,195c-0.2-0.1-0.4-0.2-0.6-0.4c-0.1-0.1-0.2-0.2-0.4-0.3   c-0.1,0-0.2,0.1-0.3,0.1c-0.1,0.1-0.2,0.2-0.3,0.4c0.1,0.2,0.5,0.4,0.7,0.5c0.1,0.1,0.2,0.1,0.4-0.1   C301.3,195.1,301.5,195,301.7,195L301.7,195z M311.5,144.2c-0.5-0.4-0.9-0.6-1.2-0.5s-0.4,0.4-0.6,1c0.3-0.1,0.5-0.2,0.9-0.2   C310.9,144.4,311.1,144.3,311.5,144.2L311.5,144.2z M318.6,177c-0.1,0.2-0.4,0.4-0.6,0.5c0.1,0.1,0.2,0.2,0.4,0.4   c0.1,0.1,0.2,0.2,0.4,0.3c0.1,0,0.1-0.1,0.2-0.1l0.3-0.3c-0.1-0.1-0.2-0.2-0.3-0.4C318.8,177.2,318.7,177.1,318.6,177L318.6,177z"></path>
	<path class="st0" d="M362.2,113.3l1.1-0.4l1.2-0.4c0.5-0.2,0.9-0.2,1.4-0.4c0.5-0.2,0.9-0.3,1.4-0.4c0.5-0.1,0.9-0.2,1.3-0.2   c0.4,0,0.9-0.1,1.2-0.2c0.5-0.2,0.9-0.2,1.4-0.2c0.5,0,0.9-0.1,1.3-0.3c0.3-0.2,0.7-0.3,1.1-0.3c0.4,0,0.8-0.1,1.2-0.2   c0.4,0,0.8-0.1,1.2-0.3l-0.6-0.6c0.1-0.1,0.1-0.2,0.1-0.3c0.2,0.1,0.5,0.2,0.8,0.2c0.2,0.1,0.5,0.2,0.8,0.2   c0.2,0.1,0.5,0.1,0.7,0.2c0.2,0,0.5,0.1,0.8,0.2c0.1,0.1,0.1,0.1,0.3,0.1c0.1,0,0.1,0.1,0.2,0.1l2.5,1.1c0.8,0.3,1.5,0.7,2.4,1.2   c0.3,0.2,0.6,0.3,0.9,0.5s0.5,0.5,0.9,0.7c0.1,0.2,0.2,0.2,0.4,0.4c0.1,0.2,0.3,0.3,0.5,0.4c0.6,0.4,1.2,0.9,1.7,1.6   c0.5,0.6,0.9,1.2,1.5,1.9l1.5,1.5c0.1,0.2,0.2,0.2,0.4,0.4c0.1,0.2,0.3,0.3,0.4,0.5c0.3,0.7,0.6,1.4,0.9,2s0.6,1.4,0.9,2.2   c0.2,0.8,0.4,1.4,0.5,2s0.3,1.4,0.4,2.1c0.1,0.2,0,0.5-0.1,0.6c-0.1-0.1-0.3-0.1-0.5-0.1s-0.3,0.1-0.5,0.1c0.1,0.1,0.1,0.1,0.1,0.1   c0,0.1,0.1,0.1,0.1,0.1c0.4,0.1,0.5,0.3,0.5,0.9c-0.1,0.1-0.1,0.3-0.1,0.4c0,0.1,0,0.3-0.1,0.4c-0.1,0.3-0.1,0.6-0.1,0.9   s-0.1,0.5-0.1,0.9c-0.1,0.5-0.2,1.1-0.3,1.7s-0.1,1.2-0.3,1.8c-0.1,0.5-0.2,0.9-0.4,1.4c0,0.1,0,0.1-0.1,0.1s-0.1,0.1-0.1,0.1   c0.1,0.8-0.1,1.6-0.4,2.3c-0.3,0.7-0.6,1.3-0.9,2c-0.2,0.5-0.5,1.1-0.7,1.6s-0.5,1.1-0.8,1.6c-0.1,0.2-0.2,0.5-0.4,0.7   c-0.1,0.2-0.3,0.4-0.4,0.6c-0.5,0.9-1,1.6-1.5,2.4c-0.5,0.8-1,1.6-1.4,2.4c-0.1,0.3-0.2,0.6-0.4,1c-0.1,0.4-0.3,0.7-0.5,1l-0.9,1.4   c-0.2,0.5-0.5,0.9-0.9,1.4c-0.1,0.2-0.3,0.5-0.5,0.8s-0.3,0.5-0.5,0.8c-0.4,0.5-0.7,1-1.1,1.6c-0.3,0.5-0.7,0.9-1.2,1.2   c-0.4,0.1-0.7,0.5-0.9,0.9c-0.1,0.4-0.2,0.7-0.5,0.9c-0.4,0.6-0.8,1.2-1.2,1.7s-0.9,1.1-1.3,1.6c-0.1,0.1-0.4,0.2-0.5,0.1   c-0.7,0.1-1,0.5-0.9,1.1l-0.5,0.5c-0.5,0.3-0.9,0.6-1.4,0.9c-0.5,0.3-0.9,0.7-1.3,1.1c-0.2,0.2-0.4,0.5-0.5,0.9   c-0.1,0.3-0.2,0.7-0.3,1c-0.1,0.1-0.2,0.2-0.4,0.3c-0.1,0.1-0.2,0.1-0.4,0.2c-0.2,0.1-0.4,0.2-0.6,0.4c-0.1,0.1-0.2,0.4-0.1,0.6   c0,0.1-0.1,0.2-0.1,0.3c-0.1,0.1-0.1,0.1-0.2,0.3c-0.4,0.3-0.8,0.6-1.2,0.9s-0.8,0.6-1.2,1c-0.3,0.3-0.6,0.6-0.9,1s-0.5,0.7-0.9,1   s-0.5,0.6-0.8,0.9c-0.2,0.2-0.5,0.5-0.8,0.9c-0.4,0.5-0.8,0.6-1.1,0.4c0-0.1,0-0.1-0.1-0.1l0,0l-2.2,1.9c0,0.1,0.2,0.4,0.7,0.9   c-0.3,0.1-0.6,0.4-1,0.6c-0.5,0.3-0.6,0.7-0.3,1.1c0.3,0.4,0.8,1,1.1,1.6c0.3,0.5,0.7,1.1,1,1.6c0.3,0.4,0.5,0.9,0.7,1.2   c0.1,0.4,0.4,0.9,0.6,1.4c0.1,0.3,0.2,0.6,0.4,0.9l0.4,0.9c0.1,0.6,0.5,1.2,0.8,1.7c0.3,0.6,0.4,1.3,0.1,1.9   c0.5,0.3,0.9,0.8,1.1,1.3c0.2,0.6,0.1,1.2-0.1,1.9c0,0.1,0,0.2-0.1,0.3c-0.1,0-0.1,0.1,0,0.1l0,0c0.1,0.6,0.1,1.2-0.1,1.8   c-0.2,0.5-0.5,1.1-0.7,1.6c-0.1,0.1-0.1,0.2-0.2,0.3c-0.1,0.1-0.2,0.2-0.4,0.3c-0.1,0.3-0.4,0.5-0.6,0.9c-0.2,0.2-0.4,0.5-0.6,0.9   c-0.1,0.1-0.2,0.2-0.2,0.4c0,0.1-0.1,0.3-0.2,0.4l-1.4,1.4c-0.5,0.4-0.9,0.9-1.4,1.2c-0.1,0.1-0.4,0.3-0.6,0.5   c-0.4,0.2-0.8,0.5-1.2,0.6c-0.4,0.1-0.8,0.4-1.1,0.7c-0.3,0.4-0.8,0.6-1.2,0.8c-0.5,0.1-0.9,0.4-1.4,0.6c-0.5,0.3-1.1,0.5-1.6,0.8   l-1.7,0.7c-0.5,0.2-1,0.4-1.5,0.5c-0.5,0.1-1,0.3-1.4,0.6c-0.5,0.3-1.1,0.4-1.6,0.2c-0.3-0.1-0.6,0-0.9,0.1   c-0.3,0.1-0.5,0.2-0.9,0.3c-0.1,0.1-0.3,0.1-0.5,0s-0.4-0.1-0.5-0.1c-0.1-0.1-0.4-0.1-0.5-0.1c-0.5-0.1-1.2-0.1-1.7-0.1   c-0.6,0-1.2,0-1.8-0.1c-0.2,0-0.5-0.1-0.7-0.1c-0.2-0.1-0.5-0.1-0.7-0.2c-0.2-0.1-0.5-0.3-0.9-0.4c-0.4-0.1-0.8-0.2-1.1-0.4   c-0.3-0.1-0.6-0.4-0.9-0.6c-0.1-0.1-0.1-0.2-0.2-0.2c-0.1,0-0.2-0.1-0.4-0.1c-0.1-0.1-0.1-0.1-0.3-0.1c-0.1,0-0.1-0.1-0.2-0.1   l-1.1-0.9l-1.1-0.9c-0.1-0.1-0.4-0.4-0.5-0.6s-0.3-0.5-0.4-0.7c-0.5-0.8-0.9-1.6-1.1-2.5c-0.2-0.9-0.2-1.8,0.1-2.6   c0.1-0.2,0.2-0.5,0.3-0.6c0.1-0.1,0.3-0.1,0.6-0.1c0.1,0,0.3-0.1,0.5-0.1c0.1-0.1,0.3-0.2,0.4-0.4c0.4-1.2,0.9-2.2,1.6-3.2   c0.7-0.9,1.5-1.9,2.3-2.7c0.7-0.7,1.3-1.5,1.9-2.3c0.5-0.8,1.2-1.6,1.9-2.3c0.5-0.5,1-1,1.5-1.5s1-1,1.5-1.6   c0.4-0.4,0.7-0.9,1.1-1.2s0.8-0.8,1.2-1.2l2.6-2.6l2.6-2.6c0.9-0.9,0.9-1.7-0.1-2.5c-0.4-0.4-0.9-0.7-1.2-1.1   c-0.4-0.4-0.8-0.8-1.2-1.2l-1.5-1.7c-0.5-0.6-1-1.2-1.5-1.8c-0.1-0.1-0.3-0.4-0.5-0.6c-0.1-0.4-0.4-0.7-0.5-1.1s-0.3-0.7-0.5-1.1   c-0.7-1.2-1.2-2.6-1.7-3.9c-0.5-1.3-0.9-2.7-1.2-4.1c-0.5-2.6-0.1-5.3,0.9-7.8c0.2-0.5,0.5-1.1,0.6-1.6c0.1-0.5,0.4-1.1,0.7-1.6   c0.7-1.6,1.5-3.1,2.5-4.6c0.9-1.6,1.8-3.1,2.6-4.5l3.3-4.4c0.9-1.2,1.7-2.3,2.6-3.5l2.6-3.5c0.5-0.6,1-1.2,1.5-1.8s1-1.2,1.5-1.8   c0.1-0.2,0.3-0.3,0.4-0.3c0.4-0.2,0.7-0.2,1.1-0.2c0.3,0,0.7-0.1,1-0.2l-0.1,0.7c-0.1,0.2,0,0.4,0.1,0.5c0.1,0.2,0.3,0.2,0.5,0.2   s0.5,0.1,0.6,0.2l1.1,0.3c-0.2,0.3-0.5,0.7-0.5,1.2c0,0.1,0.3,0.4,0.9,0.6c0.3,0.1,0.7,0.3,1.2,0.5c0.1,0,0.2,0,0.3,0.1   c0.1,0.1,0.1,0.3,0.1,0.5c0.1,0.2,0.1,0.5,0.2,0.9c0.1,0.3,0.1,0.5,0.1,0.9c0,0.3,0.1,0.5,0.1,0.5c-0.1,0.1-0.1,0.3-0.1,0.5   c-0.1,0.1-0.1,0.3,0,0.5c0.1,1.3-0.3,2.6-1.2,3.4c-0.1,0.1-0.2,0.3-0.2,0.5c0,0.1-0.1,0.3-0.2,0.5c-0.3,0.5-0.6,0.9-0.9,1.4   s-0.6,0.9-0.9,1.4s-0.7,0.9-1.1,1.4c-0.4,0.5-0.8,0.9-1.3,1.2c-0.3,0.3-0.6,0.7-0.8,1.2s-0.4,0.9-0.7,1.2s-0.6,0.9-0.9,1.2   s-0.6,0.8-0.9,1.2c-1,1.2-1.9,2.6-2.6,3.7c-0.5,0.8-1.1,1.6-1.6,2.3c-0.5,0.8-1,1.6-1.5,2.3c-0.3,0.6-0.5,1.2-0.8,1.9   c-0.1,0.7-0.4,1.3-0.7,1.9c-0.2,0.5-0.4,0.9-0.5,1.4s-0.3,0.9-0.5,1.4c-0.8,1.5-1,3.2-0.6,4.9c0.2,1,0.6,1.9,1.2,2.7   c0.5,0.8,1.2,1.6,1.9,2.3c0.5,0.5,0.9,1,1.4,1.5c0.5,0.5,1,1,1.5,1.5c0.2,0.3,0.7,0.3,1,0.1l0,0l2.9-2.9c0.1-0.1,0.1-0.1,0.2-0.3   c0-0.1,0.1-0.1,0.1-0.1c0.6-0.5,1.3-1.1,1.9-1.7c0.6-0.6,1.2-1.2,1.9-1.7l0.4-0.5c0.1-0.1,0.2-0.3,0.5-0.4c0.4-0.1,0.8-0.3,1-0.6   c0.2-0.3,0.4-0.6,0.6-0.9c0.5-0.7,1.2-1.3,1.7-1.9s1.2-1.3,1.9-1.9c0.1-0.1,0.3-0.3,0.5-0.4c0.1-0.1,0.3-0.3,0.5-0.4   c0.1,0,0.1,0.1,0.2,0.1c-0.1,0.1-0.2,0.3-0.2,0.5c-0.1,0.1-0.1,0.3-0.3,0.5l-2.7,3.3c-0.1,0.2-0.4,0.5-0.5,0.7   c-0.2,0.2-0.5,0.5-0.8,0.6c-0.3,0.1-0.6,0.4-0.9,0.7c-0.3,0.3-0.5,0.7-0.5,1.2c-0.1,0.4-0.3,0.7-0.6,1s-0.6,0.6-0.9,1   c-0.3,0.3-0.5,0.6-0.8,1c-0.2,0.4-0.5,0.8-0.7,1.1c-0.1,0.1-0.1,0.3,0.1,0.5c0.1,0.1,0.3,0.1,0.5,0c0.2-0.1,0.5-0.2,0.8-0.4   c0.2-0.1,0.5-0.5,0.5-0.8c0.1-0.3,0.3-0.6,0.5-0.9c0.2-0.3,0.6-0.5,1.1-0.4c0.1,0,0.2-0.1,0.3-0.1l0.3-0.3c0.3-0.4,0.6-0.9,0.9-1.2   s0.7-0.8,1-1.2c0.5-0.5,0.9-1,1.3-1.5c0.4-0.5,1-0.9,1.6-1.2c0.5-0.3,1.1-0.7,1.5-1.2s0.9-0.9,1.4-1.4c0.1-0.1,0.3-0.3,0.5-0.5   c0.1-0.1,0.3-0.3,0.5-0.5c0.2-0.1,0.5-0.4,0.6-0.6c0.2-0.2,0.4-0.5,0.6-0.7l0.9-0.9c0.3-0.4,0.6-0.9,0.9-1.2s0.5-0.8,0.9-1.2   c0.4-0.5,0.9-0.9,1.2-1.3c0.4-0.4,0.8-0.9,1.2-1.3l1.1-1.5c0.4-0.5,0.7-1,1-1.5c0.3-0.4,0.5-0.8,0.9-1.2c0.2-0.4,0.6-0.7,1.1-0.8   c0.1-0.1,0.1-0.1,0.1-0.3c0-0.1,0-0.2,0.1-0.4c0.1-0.1,0.1-0.3,0.1-0.5c0-0.1,0.1-0.3,0.1-0.4c0.1-0.3,0.4-0.5,0.6-0.9   c0.2-0.2,0.5-0.5,0.8-0.9c0.1-0.2,0.2-0.4,0.2-0.6c0.1-0.2,0.1-0.5,0.2-0.8s0.2-0.4,0.3-0.6s0.1-0.5,0.2-0.6   c0.1-0.2,0.3-0.7,0.5-1.2c0.1-0.1,0.1-0.2,0.1-0.4c0-0.1,0.1-0.1,0.1-0.1c0.5-0.1,0.8-0.4,0.9-0.7c0.1-0.3,0.1-0.7,0.2-1   c0.1-0.4,0.4-0.9,0.5-1.2s0.4-0.8,0.5-1.3c0.1-0.3,0.2-0.6,0.2-0.9c0.1-0.3,0.1-0.6,0.2-0.9c0.1-0.5,0.2-0.9,0.2-1.4   s0.1-0.9,0.4-1.3c0.1-0.1,0.1-0.2,0.1-0.4c-0.1-0.1-0.1-0.2,0-0.4c0.1-0.1,0.1-0.2,0.2-0.3c0.1-0.1,0.1-0.1,0.1-0.3v-1.2   c0-0.5,0-0.9,0.1-1.2c0-0.1,0.1-0.2,0.2-0.3c0.1-0.1,0.3-0.1,0.4-0.3l-0.4-0.4c-0.1-0.1-0.1-0.3-0.1-0.5c-0.1-0.1-0.1-0.3,0-0.5   c0.1-0.1,0.1-0.4,0.1-0.5c0.1-0.8,0.1-1.6-0.1-2.3c-0.2-0.7-0.4-1.5-0.5-2.2c-0.1-0.3-0.1-0.6-0.1-0.9c-0.1-0.3-0.1-0.6-0.2-0.9   c-0.1-0.1-0.1-0.2-0.2-0.3c-0.1-0.1-0.2-0.2-0.3-0.3c0,0.2,0,0.5-0.1,0.6c0,0.1,0,0.2,0.1,0.3c0,0.1,0,0.2-0.1,0.3   c0,0.1-0.1,0.1-0.1,0.1h-0.1c-0.1-0.1-0.1-0.2-0.1-0.3c-0.1-0.1-0.1-0.2-0.1-0.3c-0.1-2-1-3.9-2.6-5.3c-0.4-0.4-0.9-0.7-1.3-0.9   c-0.5-0.3-0.9-0.5-1.4-0.8c-0.9-0.4-2-0.5-3-0.3c-0.7,0.2-1.4,0.2-2.1,0.2c-0.8,0-1.4,0-2.1-0.1c-0.9-0.1-1.7-0.1-2.6-0.1   s-1.8,0.2-2.6,0.5c-0.5,0.2-1.1,0.2-1.6,0.3c-0.5,0.1-1.2,0.2-1.7,0.3h-0.4c-0.4,0.5-1,0.7-1.5,0.5c-0.5-0.2-1.1-0.2-1.6-0.3   c-0.4-0.1-0.9-0.1-1.2,0c-0.4,0.1-0.9,0.2-1.3,0.2c-0.1-0.1-0.1-0.2-0.1-0.3c0-0.1,0-0.2-0.1-0.3l-2.4,0.4l-2.4,0.4l-0.1-0.2   c0.9,0,1.8-0.2,2.5-0.8c0.8-0.5,1.6-0.8,2.6-0.7c0.1-0.2,0.1-0.5,0.3-0.6c0.2,0,0.5,0,0.8,0.1c0.2,0.1,0.4,0,0.6-0.1   c0.6-0.2,1.2-0.5,1.7-0.7l1.9-0.8c-0.6-0.2-1.2-0.3-1.9-0.2c-0.6,0.1-1.2,0.3-1.7,0.6c0-0.1,0-0.2-0.1-0.2   C362.2,113.3,362.2,113.3,362.2,113.3z M345.6,204.8c-0.1-0.1-0.1-0.4-0.1-0.5s0-0.3-0.1-0.5c-0.1-0.2-0.1-0.6,0.1-0.8   c0,0,0.1-0.1,0.1-0.1l1.5-0.7c0.5-0.2,1-0.5,1.5-0.8c0.1-0.1,0.4-0.1,0.6-0.1c0.1,0,0.4-0.1,0.5-0.1c0.3-0.6,0.9-1.2,1.6-1.4   s1.3-0.6,1.8-1.2c0.7-0.8,1.4-1.6,2.2-2.3c0.8-0.7,1.5-1.5,2-2.3c0.3-0.4,0.5-0.9,0.8-1.3c0.1-0.5,0.4-0.9,0.5-1.4   c0.1-0.1,0.1-0.1,0.1-0.3c-0.2-0.7-0.5-1.3-0.7-1.9c-0.2-0.7-0.5-1.3-0.8-1.9c-0.2-0.7-0.6-0.8-1.2-0.1l-1.6,1.6   c-0.7,0.7-1.3,1.3-1.9,2s-1.3,1.3-1.9,2c-0.6,0.7-1.5,1.6-2.3,2.4c-0.8,0.9-1.5,1.6-2.3,2.5c-0.5,0.5-1.1,1.1-1.5,1.7   c-0.5,0.5-1,1.2-1.5,1.8c-0.4,0.4-0.7,0.9-1.1,1.2c-0.4,0.4-0.6,0.9-0.9,1.2c-0.1,0.2-0.1,0.4,0,0.5s0.2,0.1,0.5,0.1   c0.2-0.1,0.5-0.1,0.6-0.1c0.1-0.1,0.4-0.1,0.6-0.1c0.5-0.1,1.1-0.1,1.6-0.1c0.3,0.1,0.6,0.5,0.9,1.1L345.6,204.8z M369.1,109.8   c-1.2,0.5-2.4,0.9-3.5,1.3s-2.3,0.8-3.4,1.3l-1.5,0.6c-0.5,0.2-1,0.5-1.5,0.7c-0.5,0.2-0.9,0.4-1.3,0.6c-0.5,0.2-0.9,0.5-1.3,0.7   c-0.1,0-0.2,0-0.4-0.1c2-1.2,4-2.3,6.2-3.3C364.4,110.8,366.7,110.1,369.1,109.8L369.1,109.8z M359.5,175.2   c-0.1-0.1-0.3-0.2-0.4-0.3s-0.2-0.1-0.3-0.1c-0.2,0-0.4,0.1-0.5,0.5c0,0.1,0.1,0.2,0.1,0.3c0.1,0.1,0.1,0.1,0.2,0.1   C358.9,175.5,359.2,175.4,359.5,175.2z M377,153.2c-0.5,0.7-0.9,1.3-1.4,2c-0.4,0.6-0.9,1.2-1.5,1.7c-0.5,0.5-0.9,1-1.3,1.5   s-0.8,1-1.2,1.5c-0.3,0.3-0.5,0.6-0.7,0.9c-0.1,0.3-0.4,0.7-0.6,0.9s-0.4,0.4-0.5,0.4c-0.1,0.1-0.3,0.1-0.5,0.1s-0.3,0-0.5,0.1   c0.1-0.1,0.2-0.2,0.3-0.3c0.1-0.1,0.1-0.2,0.2-0.3l0.2-0.3l1.1-1.4c0.3-0.4,0.7-0.9,1.1-1.2c0.5-0.5,0.9-1.1,1.4-1.6   c0.4-0.5,0.9-1.1,1.4-1.6c0.2-0.3,0.5-0.6,0.6-0.9c0.2-0.2,0.4-0.5,0.5-0.9c0.1-0.1,0.3-0.4,0.5-0.5c0.1-0.1,0.4-0.3,0.5-0.5   L377,153.2z M378.5,151.1c-0.1,0.2-0.3,0.5-0.5,0.6c-0.1,0.1-0.2,0.4-0.4,0.5C377.5,151.4,377.7,151.1,378.5,151.1L378.5,151.1z    M381.1,147.1c-0.3,0.5-0.6,0.9-0.9,1.3c-0.3,0.4-0.6,0.8-0.9,1.2c0.1-0.6,0.4-1.2,0.8-1.8C380.4,147.4,380.8,147.1,381.1,147.1   L381.1,147.1z M385.8,138l-0.9,2.1l-0.9,2.1c-0.1,0-0.2,0-0.2-0.1s0-0.1-0.1-0.3c0-0.1,0-0.2,0.1-0.3c0.3-0.7,0.6-1.3,0.9-1.9   s0.5-1.2,0.9-1.9C385.5,137.9,385.6,137.9,385.8,138L385.8,138z M385.9,137.7c-0.1-0.5-0.1-1.2,0.1-1.7c0.1-0.5,0.4-1.1,0.9-1.5   c-0.1,0.5-0.2,1-0.4,1.6L385.9,137.7z M387.3,131.1c0.1-0.4,0.1-0.7,0.1-1.1c0.1-0.4,0.1-0.8,0.1-1.2c0.4,0.5,0.5,0.9,0.2,1.2   c-0.2,0.3-0.3,0.7-0.2,1.1H387.3z M387.9,124.6c0-0.1,0.1-0.2,0.1-0.2c0.1-0.1,0.1-0.2,0.2-0.3c0.1,0.2,0.1,0.4,0.1,0.5   c0,0.5,0,1-0.1,1.5s-0.1,1-0.1,1.5c0,0.2,0,0.2-0.1,0.2c-0.1,0.1-0.1,0.2-0.1,0.2L387.9,124.6C387.9,124.6,387.9,124.6,387.9,124.6   z"></path>
</g>
</svg>